<svg width="155" height="22" viewBox="0 0 155 22" fill="none" xmlns="http://www.w3.org/2000/svg">
<path d="M16.7617 4.41602H10.6641V21H6.5625V4.41602H0.546875V1.09375H16.7617V4.41602ZM26.6875 16.0645L31.1992 1.09375H35.7656L28.834 21H24.5547L17.6504 1.09375H22.2031L26.6875 16.0645ZM49.9844 1.09375L55.0977 15.5312L60.1836 1.09375H65.5703V21H61.4551V15.5586L61.8652 6.16602L56.4922 21H53.6758L48.3164 6.17969L48.7266 15.5586V21H44.625V1.09375H49.9844ZM80.6367 16.8984H73.4453L72.0781 21H67.7168L75.127 1.09375H78.9277L86.3789 21H82.0176L80.6367 16.8984ZM74.5527 13.5762H79.5293L77.0273 6.125L74.5527 13.5762ZM98.5605 15.7773C98.5605 15.0026 98.2871 14.4102 97.7402 14C97.1934 13.5807 96.209 13.1432 94.7871 12.6875C93.3652 12.2227 92.2396 11.7669 91.4102 11.3203C89.1497 10.099 88.0195 8.45378 88.0195 6.38477C88.0195 5.30924 88.3203 4.35221 88.9219 3.51367C89.5326 2.66602 90.403 2.00521 91.5332 1.53125C92.6725 1.05729 93.9486 0.820312 95.3613 0.820312C96.7832 0.820312 98.0501 1.08008 99.1621 1.59961C100.274 2.11003 101.135 2.83464 101.746 3.77344C102.366 4.71224 102.676 5.77865 102.676 6.97266H98.5742C98.5742 6.0612 98.2871 5.35482 97.7129 4.85352C97.1387 4.3431 96.332 4.08789 95.293 4.08789C94.2904 4.08789 93.5111 4.30208 92.9551 4.73047C92.3991 5.14974 92.1211 5.70573 92.1211 6.39844C92.1211 7.04557 92.4447 7.58789 93.0918 8.02539C93.748 8.46289 94.7096 8.87305 95.9766 9.25586C98.3099 9.95768 100.01 10.8281 101.076 11.8672C102.143 12.9062 102.676 14.2005 102.676 15.75C102.676 17.4727 102.024 18.8262 100.721 19.8105C99.4173 20.7858 97.6628 21.2734 95.457 21.2734C93.9258 21.2734 92.5312 20.9954 91.2734 20.4395C90.0156 19.8743 89.054 19.1042 88.3887 18.1289C87.7324 17.1536 87.4043 16.0234 87.4043 14.7383H91.5195C91.5195 16.9349 92.832 18.0332 95.457 18.0332C96.4323 18.0332 97.1934 17.8372 97.7402 17.4453C98.2871 17.0443 98.5605 16.4883 98.5605 15.7773ZM120.449 4.41602H114.352V21H110.25V4.41602H104.234V1.09375H120.449V4.41602ZM134.777 12.373H126.902V17.7051H136.145V21H122.801V1.09375H136.117V4.41602H126.902V9.16016H134.777V12.373ZM145.92 13.7129H142.652V21H138.551V1.09375H145.947C148.299 1.09375 150.113 1.61784 151.389 2.66602C152.665 3.71419 153.303 5.19531 153.303 7.10938C153.303 8.46745 153.007 9.60221 152.414 10.5137C151.831 11.416 150.942 12.1361 149.748 12.6738L154.055 20.8086V21H149.652L145.92 13.7129ZM142.652 10.3906H145.961C146.991 10.3906 147.788 10.1309 148.354 9.61133C148.919 9.08268 149.201 8.35807 149.201 7.4375C149.201 6.4987 148.932 5.76042 148.395 5.22266C147.866 4.6849 147.05 4.41602 145.947 4.41602H142.652V10.3906Z" fill="white"/>
</svg>
