<svg width="38" height="38" viewBox="0 0 38 38" fill="none" xmlns="http://www.w3.org/2000/svg">
<path d="M19.2649 0.00176529C8.58019 -0.142548 -0.142548 8.58019 0.00176529 19.2649C0.144252 29.512 8.48794 37.8557 18.7351 37.9982C29.4216 38.1443 38.1425 29.4216 37.9964 18.7369C37.8557 8.48794 29.512 0.144252 19.2649 0.00176529ZM27.677 11.6236L20.1654 28.6598C19.7279 29.6161 18.2675 29.2992 18.2675 28.2433V20.096C18.2675 19.9991 18.229 19.9062 18.1604 19.8377C18.0919 19.7692 17.999 19.7307 17.9021 19.7307H9.75662C8.70441 19.7307 8.38655 18.2812 9.3392 17.8427L26.3764 10.3229C26.5584 10.2388 26.7619 10.2126 26.9593 10.2478C27.1567 10.283 27.3385 10.3779 27.4803 10.5197C27.6221 10.6614 27.7169 10.8433 27.7521 11.0407C27.7873 11.2381 27.7611 11.4415 27.677 11.6236Z" fill="white"/>
</svg>
