<svg width="36" height="28" viewBox="0 0 36 28" fill="none" xmlns="http://www.w3.org/2000/svg">
<path d="M4.5 0H31.5C32.6931 0.00125422 33.8369 0.467579 34.6806 1.29665C35.5242 2.12573 35.9987 3.24984 36 4.42232V23.3751C35.9987 24.5476 35.5242 25.6717 34.6806 26.5008C33.8369 27.3299 32.6931 27.7962 31.5 27.7975H4.5C3.30692 27.7962 2.16307 27.3299 1.31943 26.5008C0.475792 25.6717 0.00127792 24.5476 0 23.3751V4.42232C0.00127792 3.24984 0.475792 2.12573 1.31943 1.29665C2.16307 0.467579 3.30692 0.00125422 4.5 0ZM5.63946 7.315L17.2109 16.1596C17.4365 16.332 17.7142 16.4256 18 16.4256C18.2858 16.4256 18.5635 16.332 18.7891 16.1596L30.3605 7.315C30.4965 7.2141 30.6107 7.08766 30.6965 6.94302C30.7823 6.79837 30.838 6.63841 30.8603 6.47244C30.8827 6.30646 30.8712 6.13777 30.8267 5.97618C30.7821 5.81458 30.7053 5.6633 30.6007 5.53113C30.4962 5.39896 30.3659 5.28852 30.2175 5.20625C30.0691 5.12398 29.9056 5.0715 29.7364 5.05188C29.5672 5.03226 29.3958 5.04587 29.232 5.09194C29.0682 5.138 28.9153 5.2156 28.7823 5.32021L18 13.5615L7.21768 5.32021C6.94806 5.12012 6.60914 5.03236 6.2742 5.07592C5.93926 5.11947 5.63523 5.29084 5.42785 5.55296C5.22046 5.81508 5.1264 6.14688 5.166 6.47662C5.20561 6.80636 5.37568 7.10753 5.63946 7.315Z" fill="white"/>
</svg>
