<svg width="36" height="38" viewBox="0 0 36 38" fill="none" xmlns="http://www.w3.org/2000/svg">
<path d="M28.8462 37.9997C27.2773 37.9997 25.0735 37.4008 21.7733 35.455C17.7603 33.08 14.6563 30.8873 10.6649 26.6861C6.81663 22.6273 4.94392 19.9995 2.32294 14.9661C-0.638021 9.28303 -0.133276 6.30407 0.430947 5.03088C1.10287 3.50917 2.09468 2.59902 3.37664 1.69566C4.10478 1.19219 4.87534 0.760594 5.67854 0.406361C5.75891 0.369887 5.83366 0.33511 5.90037 0.303726C6.29822 0.114572 6.90102 -0.17128 7.66457 0.134081C8.17414 0.335958 8.62905 0.749044 9.34116 1.49124C10.8015 3.01126 12.7972 6.39652 13.5334 8.05904C14.0277 9.17955 14.3549 9.9192 14.3557 10.7488C14.3557 11.72 13.8927 12.469 13.3309 13.2773C13.2256 13.4292 13.1211 13.5742 13.0199 13.715C12.4082 14.5632 12.274 14.8084 12.3624 15.246C12.5416 16.1257 13.8782 18.7441 16.0749 21.0572C18.2715 23.3703 20.6811 24.6919 21.5178 24.8802C21.9502 24.9777 22.1873 24.8301 23.0167 24.1617C23.1357 24.0659 23.2578 23.9666 23.3856 23.8674C24.2424 23.1948 24.9192 22.7189 25.8177 22.7189H25.8226C26.6046 22.7189 27.2741 23.0769 28.3833 23.6672C29.83 24.4374 33.1341 26.5164 34.5833 28.0593C35.2882 28.8092 35.6812 29.2876 35.8733 29.8245C36.1626 30.6328 35.8902 31.2665 35.7125 31.6906C35.6828 31.761 35.6498 31.8382 35.6153 31.9238C35.277 32.77 34.8656 33.5815 34.3864 34.3481C33.532 35.6967 32.6664 36.7409 31.2213 37.4509C30.4792 37.8213 29.6671 38.009 28.8462 37.9997Z" fill="white"/>
</svg>
